<svg width="44" height="44" viewBox="0 0 44 44" fill="none" xmlns="http://www.w3.org/2000/svg">
<path d="M42.4374 21.317C42.3029 10.1722 33.2277 1.17969 22.0517 1.17969C11.1759 1.17969 2.29728 9.69615 1.70744 20.4271C1.72813 20.0235 1.76952 19.62 1.81092 19.2164C1.75918 19.62 1.72813 20.0235 1.70744 20.4271C1.69709 20.5616 1.69709 20.6962 1.68674 20.841V20.9445C1.68674 21.0273 1.68674 21.1101 1.67639 21.1929V22.1552C1.67639 22.2173 1.67639 22.2898 1.68674 22.3518C2.09031 33.2484 11.0517 41.9511 22.0517 41.9511C32.4516 41.9511 41.0301 34.159 42.2719 24.1007L42.3029 23.7902C42.3133 23.7178 42.3133 23.6454 42.3236 23.5729C42.334 23.4384 42.3547 23.2935 42.365 23.159C42.365 23.1383 42.365 23.1073 42.3754 23.0866C42.4064 22.6726 42.4271 22.2587 42.4271 21.8448V21.4309C42.4374 21.3895 42.4374 21.3584 42.4374 21.317Z" fill="#010202"/>
<path d="M26.2634 28.2192C27.0292 29.0264 27.9398 29.6059 29.0885 29.5955C30.8269 29.5852 32.2032 28.7677 33.1863 27.3914C35.2249 24.556 35.4008 21.3998 34.5626 18.1195C34.4798 17.8711 34.4074 17.6228 34.3039 17.3744C34.2521 17.2296 34.159 17.1054 34.0762 16.9709C33.683 16.3189 33.5692 16.2982 32.8552 16.5983C31.1788 17.3123 29.6679 18.3161 28.1985 19.3923C26.9154 20.334 25.6736 21.317 24.6595 22.5588C24.2145 23.1073 24.0593 23.6868 24.2249 24.3801C24.5974 25.8392 25.239 27.1327 26.2634 28.2192ZM12.1694 28.5504C14.0217 29.8439 16.0085 29.699 17.6124 28.1261C18.5852 27.1741 19.1957 26.0047 19.651 24.7319C20.0028 23.7488 19.8062 22.9313 19.1129 22.1759C17.0122 19.8683 14.5494 18.016 11.8072 16.5673C10.4309 15.8429 10.4723 15.7601 9.77895 17.3227C8.6717 19.7855 8.84762 22.3415 9.47885 24.5767C10.0997 26.3566 10.8655 27.6397 12.1694 28.5504Z" fill="white" stroke="black" stroke-width="0.25" stroke-miterlimit="10"/>
<path d="M16.1223 8.61994C16.1637 8.70272 16.3086 8.76481 16.4017 8.77516C18.3161 8.90968 20.1477 8.58889 21.8241 7.61617C21.969 7.53339 22.0932 7.29538 22.1035 7.11947C22.1449 6.56067 22.1242 6.00187 22.1345 5.44308C22.1449 4.31514 22.1656 3.19755 22.1759 2.04891C19.2681 2.02821 16.5362 2.63875 13.9182 3.83913C13.9182 3.90121 13.9078 3.93226 13.9182 3.94261C14.6425 5.50517 15.3773 7.06773 16.1223 8.61994ZM22.8796 7.81279C24.4008 8.64063 26.0358 8.97177 27.7535 8.94073C28.0743 8.94073 28.2503 8.8269 28.3744 8.5268C28.54 8.12323 28.7573 7.74035 28.9539 7.34712C29.492 6.25023 30.0405 5.16368 30.5993 4.03574C28.0226 2.77328 25.3424 2.12135 22.4864 2.05926C22.476 2.21448 22.4657 2.32831 22.4657 2.44214C22.445 3.9633 22.445 5.48447 22.3932 6.99529C22.3726 7.42991 22.5381 7.62652 22.8796 7.81279ZM28.54 9.27186C29.2023 10.9276 30.5579 11.7244 32.1929 12.159C32.2757 12.1797 32.493 12.0348 32.5137 11.9417C32.5964 11.3932 32.7206 10.8344 32.6585 10.2963C32.5757 9.49952 32.3481 8.70272 32.1929 7.91627C32.2136 7.90592 32.2343 7.89557 32.255 7.87488C32.9069 8.77516 33.5485 9.66509 34.2107 10.5861C34.9972 9.9031 35.763 9.22012 36.5494 8.5268C34.9041 6.69519 33.0311 5.25681 30.8373 4.13922C30.0612 5.73282 29.2954 7.27469 28.5503 8.8269C28.4883 8.96142 28.4883 9.14769 28.54 9.27186ZM14.5908 33.0207C13.9492 31.603 12.9765 30.5372 11.4139 30.1439C11.2691 30.1129 11.0621 30.1646 10.9379 30.2578C10.3481 30.6924 9.7686 31.158 9.18911 31.6134C8.41301 32.2135 7.64725 32.8241 6.8608 33.4346C8.29918 35.2041 9.93417 36.6632 11.8796 37.8532C12.8006 36.3321 13.7009 34.8523 14.5908 33.3622C14.6529 33.269 14.6322 33.1138 14.5908 33.0207ZM32.3895 30.4233C30.9201 30.7648 29.9473 31.7168 29.2437 33C29.0988 33.2587 29.1091 33.476 29.254 33.7244C29.6265 34.3452 29.9784 34.9765 30.3302 35.6077L31.7686 38.1119C33.7244 36.984 35.3904 35.5767 36.8598 33.8692C35.4939 32.7206 34.1693 31.603 32.8241 30.5061C32.731 30.4233 32.5344 30.3923 32.3895 30.4233ZM12.159 7.71965C12.1797 7.69896 12.2004 7.68861 12.2107 7.66791V7.74035C12.1073 8.13358 12.0038 8.51646 11.9107 8.90968C11.6933 9.82031 11.4346 10.7413 11.7968 11.6726C11.8382 11.7761 12.0141 11.921 12.0969 11.9003C13.6388 11.5484 14.9219 10.8241 15.7291 9.38569C15.905 9.0649 15.8947 8.8062 15.7394 8.48541C15.0565 7.08842 14.3942 5.68108 13.7319 4.27375C13.6181 4.02539 13.5146 3.984 13.2869 4.12887C12.2107 4.82219 11.0932 5.45343 10.0583 6.19849C9.28224 6.78833 8.58892 7.492 7.84386 8.15427C8.66136 8.90968 9.40642 9.603 10.1308 10.2756C10.8241 9.40639 11.4967 8.55785 12.159 7.71965ZM19.0508 34.842C17.9436 33.7658 16.588 33.3622 15.0772 33.3932C14.9737 33.3932 14.8495 33.4967 14.7874 33.5898C13.8975 35.0386 13.0282 36.4976 12.128 37.9878C14.0217 39.1157 16.0188 39.8918 18.1402 40.3161C18.223 40.3368 18.4092 40.1712 18.4299 40.0781C18.7197 38.588 18.9784 37.0875 19.2785 35.5974C19.3509 35.2662 19.2785 35.0593 19.0508 34.842ZM28.6435 33.5691C27.4948 33.5071 26.398 33.7554 25.4045 34.3452C24.6905 34.7695 24.1938 35.2766 24.5353 36.1975C24.5767 36.3217 24.587 36.4563 24.6077 36.5804C24.8147 37.8636 25.0217 39.1468 25.2286 40.461C27.4741 40.0884 29.5645 39.3434 31.5306 38.2568C30.6821 36.7563 29.8646 35.3076 29.0264 33.8589C28.9436 33.7244 28.778 33.5795 28.6435 33.5691ZM33.0311 29.6783C32.8448 29.8128 32.7517 30.0715 33.0414 30.2991C33.5071 30.651 33.9417 31.0442 34.3867 31.4167C35.2662 32.1515 36.1458 32.8965 37.0565 33.6519C38.6708 31.7065 39.8297 29.5644 40.6058 27.1637C39.1571 26.7187 37.7291 26.2841 36.2804 25.8495C35.4939 27.3913 34.4487 28.6952 33.0311 29.6783ZM10.6792 29.2747C9.65477 28.5089 8.84763 27.5569 8.20605 26.46C8.04048 26.1703 7.94734 25.7356 7.70934 25.6322C7.47133 25.5287 7.08845 25.7356 6.76766 25.8184C5.66042 26.1185 4.55318 26.4393 3.38384 26.7601C4.11856 29.1402 5.19476 31.2615 6.70557 33.1863C8.06117 32.1308 9.38573 31.1063 10.6999 30.0715C11.0725 29.7921 11.0621 29.5541 10.6792 29.2747ZM23.9455 35.3076C22.8796 34.9454 21.7931 34.8213 20.6858 35.0179C19.6614 35.2041 19.651 35.2145 19.4544 36.2389C19.1853 37.6256 18.937 39.0122 18.6783 40.4196C20.7686 40.7921 22.8175 40.8024 24.9285 40.5127C24.6595 38.8053 24.4111 37.1392 24.1421 35.4732C24.1317 35.4111 24.0179 35.3387 23.9455 35.3076ZM3.59081 26.4083C4.35656 26.2117 5.12232 25.9944 5.88808 25.777C6.45722 25.6218 7.01602 25.4563 7.45064 25.3321C7.12985 23.7074 6.82975 22.1552 6.51931 20.5409C5.31893 20.4581 4.00473 20.365 2.66983 20.2719C2.54565 22.3311 2.75261 24.318 3.27002 26.2634C3.28036 26.3358 3.49767 26.429 3.59081 26.4083ZM41.4751 20.9859C41.4751 20.9134 41.2992 20.7893 41.206 20.7996C40.0471 20.841 38.8777 20.8928 37.7187 20.9341C37.4704 20.9445 37.429 21.048 37.3979 21.2756C37.2738 22.1656 37.1496 23.0658 36.9633 23.9454C36.8392 24.5042 36.6115 25.0423 36.4252 25.6011C37.8429 26.0357 39.2399 26.46 40.6886 26.8946C41.2681 24.9388 41.5268 22.9831 41.4751 20.9859ZM7.51272 15.5738C7.53342 15.5014 7.48168 15.3255 7.41959 15.3048C6.35374 14.8184 5.27754 14.3528 4.1703 13.8664C3.31141 15.8325 2.8354 17.8608 2.68018 19.9925L6.67453 20.2719C6.71592 18.6265 7.01602 17.0847 7.51272 15.5738ZM36.7253 15.9774C37.1289 17.4365 37.4186 18.9059 37.4186 20.4271C37.4186 20.4995 37.5428 20.6444 37.6049 20.6444C38.8777 20.603 40.1505 20.5409 41.4647 20.4892C41.3509 18.3782 40.9473 16.3706 40.1505 14.4045C39.0536 14.8391 37.9774 15.2634 36.9116 15.698C36.8185 15.7291 36.7046 15.905 36.7253 15.9774ZM34.4901 11.1035C34.8834 11.8692 35.318 12.6246 35.6905 13.4007C36.0217 14.0837 36.2907 14.7874 36.6011 15.5118C37.7498 15.0461 38.8881 14.5804 40.0471 14.1148C39.1985 12.1383 38.143 10.3584 36.7253 8.76481C35.9596 9.44778 35.2145 10.0894 34.4901 10.7516C34.428 10.8034 34.4384 11 34.4901 11.1035ZM9.90313 10.6999C9.93417 10.6378 9.91348 10.4929 9.86174 10.4412C9.14772 9.75822 8.42335 9.09595 7.68864 8.41298C6.26061 9.96519 5.15336 11.6726 4.27378 13.6077C5.42241 14.1148 6.54001 14.6011 7.55412 15.0461C8.35092 13.5767 9.13737 12.1383 9.90313 10.6999Z" fill="#C01918"/>
<path d="M16.3085 9.06489C16.7845 10.0583 17.2088 10.9793 17.6641 11.8899C17.7366 12.0244 17.9228 12.1693 18.0677 12.1797C19.3302 12.2417 20.5512 12.0451 21.6792 11.4346C21.8241 11.3518 22.031 11.2069 22.031 11.0931C22.0724 10.0169 22.0724 8.95106 22.0828 7.82312C20.2925 8.83723 18.3988 9.19941 16.3085 9.06489ZM22.5588 11.4036C23.7178 12.0762 24.9802 12.3349 26.3151 12.2728C26.4186 12.2728 26.5635 12.1797 26.6049 12.0865C27.0809 11.1552 27.5465 10.2239 28.0432 9.22011C25.9943 9.29255 24.1213 8.89932 22.3829 7.85416C22.3725 8.97176 22.3518 10.0376 22.3518 11.1035C22.3622 11.2069 22.4656 11.3415 22.5588 11.4036ZM23.1072 18.8335C22.4035 18.5851 21.6895 18.5851 20.9859 18.8024C20.8617 18.8438 20.7272 18.8956 20.6133 18.968C20.3857 19.1129 20.1787 19.2888 19.9511 19.413C19.651 19.5682 19.5682 19.8579 19.7751 20.1373C20.158 20.6651 20.5616 21.1825 20.8927 21.7413C21.1825 22.238 21.524 22.7347 21.348 23.397C21.1411 24.1938 21.1721 24.1938 21.9896 24.2248C22.0931 24.2248 22.1966 24.2559 22.3104 24.2559C22.6519 24.2765 22.8692 24.1317 22.745 23.7798C22.476 23.0037 22.745 22.3622 23.1693 21.7516C23.5418 21.2135 23.9558 20.7065 24.3283 20.1787C24.4007 20.0752 24.4318 19.9304 24.4939 19.7648C24.3283 19.6303 24.2041 19.5371 24.0799 19.444C23.8937 19.3095 23.6971 19.1646 23.5004 19.0404C23.3866 18.9576 23.2521 18.8852 23.1072 18.8335ZM12.19 12.2107C12.9868 12.9558 13.7422 13.6698 14.508 14.3734C14.5804 14.4459 14.7667 14.4769 14.8598 14.4355C15.4807 14.1354 16.1533 13.8871 16.7018 13.4732C17.5089 12.8626 17.5503 12.4384 17.1571 11.5277C17.1364 11.476 17.1157 11.4139 17.0846 11.3622C16.7638 10.6999 16.4431 10.0376 16.0912 9.30289C15.2737 10.9586 13.8871 11.745 12.19 12.2107ZM28.2502 9.38568C27.7535 10.4101 27.2775 11.3518 26.8325 12.3142C26.7808 12.4177 26.8222 12.5936 26.8843 12.7074C27.3913 13.7319 28.2813 14.2907 29.3471 14.6011C29.4506 14.6322 29.6058 14.6218 29.6782 14.5701C30.475 13.8871 31.2615 13.1834 32.0893 12.4487C30.3819 11.9623 29.0263 11.1035 28.2502 9.38568ZM20.0028 31.634C20.0235 31.5409 19.9407 31.4064 19.8683 31.3339C19.1025 30.5578 18.1505 30.2163 17.0743 30.2267C16.9605 30.2267 16.7949 30.2888 16.7432 30.3819C16.1947 31.2615 15.6566 32.1514 15.0875 33.0931C16.7638 33.1138 18.2126 33.5588 19.4233 34.8109C19.6199 33.7036 19.8269 32.6688 20.0028 31.634ZM28.6848 33.269C28.1364 32.3273 27.6397 31.4271 27.1119 30.5475C27.0498 30.444 26.8532 30.3405 26.7497 30.3612C26.1082 30.4647 25.4459 30.5164 24.856 30.7544C23.8523 31.1477 23.7902 31.3753 23.9661 32.4515C24.0903 33.2276 24.2041 34.0141 24.3386 34.8523C25.5597 33.6519 27.0291 33.238 28.6848 33.269ZM24.0592 35.0282C23.904 33.983 23.7384 33.0103 23.6143 32.0376C23.5729 31.7168 23.4384 31.5512 23.1176 31.5202C22.5381 31.4685 21.9689 31.3546 21.3894 31.365C20.4064 31.3857 20.3443 31.4581 20.158 32.4101C19.9924 33.238 19.8476 34.0762 19.6924 34.9558C21.1721 34.5004 22.6002 34.5936 24.0592 35.0282Z" fill="#C01918"/>
<path d="M22.0517 11.6313C21.3584 11.8693 20.7168 12.1487 20.0546 12.2935C19.3819 12.4384 18.6783 12.4591 17.9643 12.5315C18.4092 13.4732 18.8645 14.4356 19.3302 15.398C19.3612 15.4497 19.4647 15.5014 19.5372 15.5014C20.3443 15.5428 21.1204 15.4187 21.8344 15.0151C21.9172 14.9633 22.0103 14.8392 22.0103 14.746C22.031 13.7216 22.0414 12.6971 22.0517 11.6313ZM23.6764 15.5014C23.7281 15.5118 23.7695 15.5118 23.8213 15.5221C24.8457 15.6774 24.8354 15.6774 25.2907 14.7564C25.6425 14.0424 26.0047 13.3283 26.3876 12.5729C24.9182 12.6143 23.6039 12.3349 22.3415 11.6209L22.3104 13.8354C22.2794 15.1289 22.3932 15.2634 23.6764 15.5014ZM14.8909 14.7253C15.698 15.4807 16.4534 16.1741 17.2088 16.8674C17.2606 16.9088 17.3434 16.9502 17.3951 16.9398C18.016 16.7949 18.5437 16.5155 18.937 15.9981C19.2578 15.5842 18.9266 15.2841 18.7817 14.9633C18.4403 14.2079 18.0677 13.4525 17.6952 12.6557C17.0847 13.8044 16.1223 14.3735 14.8909 14.7253ZM26.2738 16.8881C26.6152 17.0847 26.9153 17.1157 27.2051 16.7639C27.4224 16.5052 27.7225 16.3086 27.9708 16.0809C28.3951 15.698 28.8297 15.3152 29.2747 14.9219C27.7018 14.2804 27.3396 14.0113 26.5635 12.7902C26.1599 13.6284 25.7874 14.4045 25.4045 15.1806C25.0734 15.8533 25.1251 16.0913 25.7253 16.5569C25.9012 16.6811 26.0875 16.7742 26.2738 16.8881ZM23.0245 28.2917C22.9727 27.8881 22.7968 27.7639 22.445 27.7018C21.3377 27.4949 21.0376 27.6708 20.8514 28.7056C20.6961 29.5438 20.5409 30.3716 20.4064 31.1063C21.4309 31.1374 22.4243 31.1581 23.4694 31.1891C23.3246 30.2785 23.1383 29.2851 23.0245 28.2917ZM20.6341 28.2503C20.7479 27.6501 20.6341 27.4535 20.1477 27.2775C19.2888 28.2089 18.461 29.1091 17.7573 29.8749C18.4506 30.1854 19.2888 30.5682 20.1373 30.9511C20.2822 30.1336 20.4581 29.1919 20.6341 28.2503ZM20.572 18.0988C20.7686 18.6059 21.0894 18.5645 21.4619 18.4299C21.6482 18.3679 21.9379 18.2333 21.9379 18.1092C21.9896 17.1778 21.9793 16.2465 21.9896 15.3669C21.1722 15.5428 20.365 15.7187 19.5372 15.8947C19.889 16.619 20.2719 17.3434 20.572 18.0988ZM23.7178 30.9615C24.5663 30.6096 25.4045 30.2785 26.2117 29.9473C25.3838 29.4092 24.6595 28.6124 24.142 27.6501C23.8937 27.1948 23.6867 27.2775 23.4177 27.5466C23.3246 27.6397 23.2521 27.8053 23.2625 27.9295C23.3349 28.5814 23.4487 29.223 23.5419 29.8646C23.6143 30.2681 23.6764 30.6717 23.7178 30.9615ZM23.604 18.1919C23.7695 17.8608 23.9247 17.5297 24.0903 17.1985C24.3076 16.7742 24.5456 16.3603 24.7526 15.9878C23.873 15.7912 23.0865 15.6049 22.2897 15.429L22.2587 18.1712C22.2587 18.2126 22.269 18.2644 22.2897 18.3058C22.5484 18.6472 23.4177 18.5748 23.604 18.1919ZM20.1891 18.968C20.3236 18.8646 20.4685 18.5852 20.4167 18.461C20.0753 17.6435 19.682 16.8467 19.3405 16.1223C18.7714 16.5155 18.223 16.9088 17.6642 17.302C18.2747 17.8711 18.9163 18.5024 19.6096 19.0819C19.7027 19.1647 20.0339 19.0715 20.1891 18.968ZM23.7385 18.6059C23.6971 18.699 23.7902 18.9163 23.8833 18.9784C24.0386 19.0819 24.349 19.2267 24.4318 19.1543C25.1562 18.5748 25.8391 17.9539 26.4807 17.3848C25.9323 16.9812 25.4252 16.6087 24.8975 16.2155C24.5249 16.9709 24.1214 17.778 23.7385 18.6059ZM22.0414 24.5353C21.8965 24.525 21.6275 24.5974 21.6068 24.6802C21.4102 25.5805 21.2446 26.4911 21.079 27.381L22.8589 27.4431C22.7244 26.5635 22.6105 25.6425 22.445 24.7423C22.4346 24.6491 22.1863 24.5457 22.0414 24.5353ZM30.7959 30.6821C29.8231 30.9615 28.6952 30.9718 27.4948 30.5993C27.9708 31.4478 28.4158 32.2343 28.8194 32.9379C29.5127 32.1411 30.1957 31.3547 30.7959 30.6821ZM20.1994 26.9464C20.3857 27.0706 20.572 27.2051 20.7996 27.3603C20.9652 26.4497 21.1411 25.5701 21.2963 24.6802C21.3067 24.5974 21.2342 24.4939 21.1825 24.3283C20.8307 25.2597 20.5202 26.0979 20.1994 26.9464ZM23.7281 26.9878L22.8485 24.4111C22.7968 24.4215 22.7554 24.4318 22.7037 24.4318L23.1486 27.3707C23.3866 27.2155 23.5626 27.1016 23.7281 26.9878ZM26.46 17.7884C25.8702 18.3058 25.27 18.8232 24.6905 19.3509C24.6284 19.4027 24.6595 19.5682 24.6284 19.8062C25.3321 19.0819 25.9219 18.4713 26.5014 17.8608C26.5014 17.8298 26.4807 17.8091 26.46 17.7884ZM19.3923 19.6614C19.4647 19.3509 18.7093 18.5231 18.1919 18.3265C18.6058 18.7818 18.9784 19.206 19.3923 19.6614ZM14.8805 32.8862C15.3772 32.0687 15.8429 31.2926 16.3603 30.4441C15.2013 30.7855 14.1355 30.7338 13.08 30.4854C13.0386 30.4958 12.9868 30.4958 12.9454 30.5061L13.0386 30.5682C13.8354 31.1581 14.4045 31.9445 14.8805 32.8862Z" fill="#C01918"/>
</svg>
