<svg width="39" height="39" viewBox="0 0 39 39" fill="none" xmlns="http://www.w3.org/2000/svg">
<path d="M19.5 0.825195C9.1875 0.825195 0.75 9.24395 0.75 19.6127C0.75 28.9877 7.6125 36.7689 16.575 38.1752V25.0502H11.8125V19.6127H16.575V15.4689C16.575 10.7627 19.3688 8.1752 23.6625 8.1752C25.7063 8.1752 27.8438 8.53145 27.8438 8.53145V13.1627H25.4812C23.1562 13.1627 22.425 14.6064 22.425 16.0877V19.6127H27.6375L26.7938 25.0502H22.425V38.1752C26.8433 37.4774 30.8666 35.223 33.7686 31.8191C36.6706 28.4151 38.26 24.0858 38.25 19.6127C38.25 9.24395 29.8125 0.825195 19.5 0.825195Z" fill="#7C7C7C"/>
</svg>
